<svg width="29" height="29" viewBox="0 0 29 29" fill="none" xmlns="http://www.w3.org/2000/svg">
<circle cx="14.5" cy="14.5" r="14.5" fill="#312C51"/>
<path d="M20.5412 13.2941H11.3661L15.3553 9.32035C15.5829 9.09291 15.7108 8.78443 15.7108 8.46278C15.7108 8.14113 15.5829 7.83266 15.3553 7.60522C15.1276 7.37777 14.8189 7.25 14.497 7.25C14.1751 7.25 13.8663 7.37777 13.6387 7.60522L7.59453 13.6444C7.48448 13.7593 7.39821 13.8947 7.34068 14.043C7.21977 14.3371 7.21977 14.6669 7.34068 14.961C7.39821 15.1092 7.48448 15.2447 7.59453 15.3595L13.6387 21.3987C13.7511 21.512 13.8848 21.6018 14.0321 21.6631C14.1794 21.7245 14.3374 21.756 14.497 21.756C14.6566 21.756 14.8146 21.7245 14.9619 21.6631C15.1092 21.6018 15.2429 21.512 15.3553 21.3987C15.4686 21.2865 15.5585 21.1529 15.6199 21.0057C15.6812 20.8585 15.7128 20.7006 15.7128 20.5412C15.7128 20.3817 15.6812 20.2239 15.6199 20.0767C15.5585 19.9295 15.4686 19.7959 15.3553 19.6836L11.3661 15.7098H20.5412C20.8618 15.7098 21.1692 15.5826 21.3959 15.3561C21.6226 15.1295 21.75 14.8223 21.75 14.502C21.75 14.1816 21.6226 13.8744 21.3959 13.6479C21.1692 13.4214 20.8618 13.2941 20.5412 13.2941Z" fill="#FFA154"/>
</svg>
